Coordinates
version=1
nRows=11
nColumns=40
inDegrees=yes

Units are S.I. units (second, meters, Newtons, ...)
Angles are in degrees.

endheader
time	pelvis_tilt	pelvis_list	pelvis_rotation	pelvis_tx	pelvis_ty	pelvis_tz	hip_flexion_r	hip_adduction_r	hip_rotation_r	knee_angle_r	knee_angle_r_beta	ankle_angle_r	subtalar_angle_r	mtp_angle_r	hip_flexion_l	hip_adduction_l	hip_rotation_l	knee_angle_l	knee_angle_l_beta	ankle_angle_l	subtalar_angle_l	mtp_angle_l	lumbar_extension	lumbar_bending	lumbar_rotation	arm_flex_r	arm_add_r	arm_rot_r	elbow_flex_r	pro_sup_r	wrist_flex_r	wrist_dev_r	arm_flex_l	arm_add_l	arm_rot_l	elbow_flex_l	pro_sup_l	wrist_flex_l	wrist_dev_l
     15.75000000	      6.61849499	     16.66336007	     85.02967200	      0.55467201	      0.98503686	     -0.97954022	    -29.79971437	      5.22666422	      0.52649575	      7.38630199	      0.12891529	     20.43091519	      0.00000000	      0.00000000	      6.93374817	     -8.31908083	     -4.46807819	      0.57653887	      0.01006250	      8.18033587	      0.00000000	      0.00000000	    -34.65292764	      4.04758461	      8.59419555	     11.85850453	    -18.05897908	      9.81125806	    141.45380929	     86.98325185	      0.00000000	      0.00000000	      3.45387024	     -3.61762886	      5.32179622	    140.93128565	     86.36107056	      0.00000000	      0.00000000
     15.76000000	      6.30322795	     16.81324493	     84.38934275	      0.55358057	      0.98286634	     -0.98146238	    -29.81775121	      4.29118239	      0.31868149	      9.29016866	      0.16214403	     21.25081697	      0.00000000	      0.00000000	      6.78023413	     -7.93116012	     -4.54878319	      1.36413709	      0.02380868	      8.14167618	      0.00000000	      0.00000000	    -34.56232817	      3.37993514	      8.84345572	     11.28411495	    -17.67942870	      9.54543330	    141.40833102	     86.92156868	      0.00000000	      0.00000000	      3.29032366	     -3.34893369	      5.21577920	    140.85751497	     86.25106565	      0.00000000	      0.00000000
     15.77000000	      6.15120569	     16.96786315	     83.85152756	      0.55246761	      0.98084592	     -0.98287184	    -29.82702117	      3.59761565	      0.39256778	     11.16817651	      0.19492145	     21.64379037	      0.00000000	      0.00000000	      7.15992247	     -7.77204791	     -5.11169450	      3.45011661	      0.06021589	      7.55063925	      0.00000000	      0.00000000	    -34.56275145	      2.90380331	      9.04000618	     10.80711858	    -17.23580369	      9.30375562	    141.36675870	     86.87985440	      0.00000000	      0.00000000	      3.20538326	     -3.17422267	      5.19839875	    140.81295730	     86.18885966	      0.00000000	      0.00000000
     15.78000000	      6.04607267	     17.13520790	     83.33553922	      0.55117362	      0.97894063	     -0.98426749	    -29.83239568	      2.96106425	      0.53703109	     13.06275149	      0.22798802	     21.84401624	      0.00000000	      0.00000000	      7.74452940	     -7.68736645	     -6.06088397	      6.21943272	      0.10854958	      6.93488455	      0.00000000	      0.00000000	    -34.58102055	      2.50077528	      9.21977087	     10.42537050	    -16.78306247	      9.01354046	    141.31079279	     86.86815536	      0.00000000	      0.00000000	      3.18344932	     -3.05619899	      5.16949295	    140.76642348	     86.17728164	      0.00000000	      0.00000000
     15.79000000	      5.95527881	     17.30017969	     82.88772982	      0.54956281	      0.97706919	     -0.98622737	    -29.83630642	      2.33308524	      0.60387477	     15.00000791	      0.26179953	     21.86510316	      0.00000000	      0.00000000	      8.23273949	     -7.57868838	     -6.95414678	      8.87501603	      0.15489825	      6.35586667	      0.00000000	      0.00000000	    -34.49986768	      2.17684915	      9.32661726	      9.99718475	    -16.37293126	      8.70408083	    141.22972551	     86.88133232	      0.00000000	      0.00000000	      3.10173406	     -2.94217612	      5.10899189	    140.69483937	     86.20295791	      0.00000000	      0.00000000
     15.80000000	      5.81044729	     17.56641217	     82.30826141	      0.54799102	      0.97560643	     -0.98825709	    -29.83966247	      1.54705733	      0.91156834	     17.08796566	      0.29824126	     21.81518453	      0.00000000	      0.00000000	      8.41531871	     -7.39946008	     -7.94806240	     11.11605090	      0.19401169	      5.60103163	      0.00000000	      0.00000000	    -34.49972343	      1.73095993	      9.52486856	      9.54451418	    -15.98623503	      8.52503386	    141.16741194	     86.87918498	      0.00000000	      0.00000000	      3.03954273	     -2.80206546	      5.08873595	    140.60298856	     86.23071426	      0.00000000	      0.00000000
     15.81000000	      5.58722209	     17.91729889	     81.78111516	      0.54620648	      0.97461187	     -0.99017453	    -29.84150823	      0.68227565	      1.21628131	     19.23215837	      0.33566449	     21.54317203	      0.00000000	      0.00000000	      8.45288348	     -7.10979589	     -8.75590482	     13.13971190	      0.22933124	      4.64353777	      0.00000000	      0.00000000	    -34.59106404	      1.23306992	      9.62834005	      9.21175755	    -15.60390863	      8.35378281	    141.09172000	     86.86366427	      0.00000000	      0.00000000	      3.00108726	     -2.77572980	      5.11796242	    140.52889551	     86.23113020	      0.00000000	      0.00000000
     15.82000000	      5.34869116	     18.35019854	     81.33593415	      0.54423314	      0.97400940	     -0.99205351	    -29.84486586	     -0.14868714	      1.60196868	     21.46061948	      0.37455847	     20.78333058	      0.00000000	      0.00000000	      8.38609481	     -6.73584097	     -8.98777130	     15.16645229	      0.26470453	      4.00177219	      0.00000000	      0.00000000	    -34.76076397	      0.75436326	      9.62484942	      8.98476214	    -15.18608692	      8.09636962	    141.00285658	     86.84882569	      0.00000000	      0.00000000	      2.97636374	     -2.88293153	      5.16894959	    140.46941384	     86.22895770	      0.00000000	      0.00000000
     15.83000000	      4.93461819	     19.02939623	     80.51185423	      0.54243928	      0.97401411	     -0.99440825	    -29.84069536	     -1.43045505	      2.15622323	     24.03659841	      0.41951778	     19.34284321	      0.00000000	      0.00000000	      7.87030451	     -6.21563603	     -9.80261521	     17.20104242	      0.30021482	      3.76677928	      0.00000000	      0.00000000	    -35.09174783	     -0.10623993	      9.81805688	      8.71829298	    -14.92942811	      7.97295316	    140.98651616	     86.81393143	      0.00000000	      0.00000000	      2.90788707	     -2.92196917	      5.09624237	    140.50732195	     86.20768169	      0.00000000	      0.00000000
     15.84000000	      4.39449846	     19.83238585	     79.51997909	      0.54091444	      0.97460326	     -0.99726647	    -29.83802376	     -2.88822511	      3.13972578	     26.72712160	      0.46647627	     18.02097261	      0.00000000	      0.00000000	      6.99660787	     -5.45180407	    -10.15550397	     19.03841670	      0.33228306	      3.78608080	      0.00000000	      0.00000000	    -35.42904933	     -1.18648714	     10.14387504	      8.38639480	    -14.58633461	      7.79162032	    140.95469162	     86.75450562	      0.00000000	      0.00000000	      2.82932983	     -2.96161839	      5.03145225	    140.48188144	     86.19594595	      0.00000000	      0.00000000
     15.85000000	      3.91499841	     20.60438535	     79.14507839	      0.53863351	      0.97520309	     -1.00049324	    -29.82760842	     -3.97150788	      3.48555638	     29.39412535	      0.51302427	     16.42910969	      0.00000000	      0.00000000	      6.36505588	     -4.68073488	     -9.97644797	     21.16196381	      0.36934594	      4.34339983	      0.00000000	      0.00000000	    -35.70814112	     -1.88786221	      9.91723041	      8.14317291	    -14.20155014	      7.55916410	    140.91963665	     86.76571982	      0.00000000	      0.00000000	      2.69667445	     -3.13614906	      4.96511290	    140.59645290	     86.19121798	      0.00000000	      0.00000000
